<svg xmlns="http://www.w3.org/2000/svg" width="42" height="42" viewBox="0 0 42 42">
  <g id="MaleIcon" transform="translate(-1235 -471)">
    <circle id="Ellipse_9" data-name="Ellipse 9" cx="21" cy="21" r="21" transform="translate(1235 471)" fill="#f6f7f8"/>
    <path id="male_FILL0_wght300_GRAD0_opsz24" d="M190-788.833v4.963a.936.936,0,0,1-.278.69.937.937,0,0,1-.69.278.936.936,0,0,1-.689-.278.937.937,0,0,1-.278-.69v-2.8l-5.874,5.829a8.5,8.5,0,0,1,.991,1.94,6.281,6.281,0,0,1,.366,2.13,6.537,6.537,0,0,1-1.97,4.8,6.535,6.535,0,0,1-4.8,1.971,6.539,6.539,0,0,1-4.8-1.97,6.534,6.534,0,0,1-1.971-4.8,6.539,6.539,0,0,1,1.971-4.8,6.535,6.535,0,0,1,4.8-1.971,6.408,6.408,0,0,1,2.115.356,7.457,7.457,0,0,1,1.922,1l5.874-5.874h-2.814a.936.936,0,0,1-.69-.278.937.937,0,0,1-.278-.69.935.935,0,0,1,.278-.689.937.937,0,0,1,.69-.278h4.963a1.129,1.129,0,0,1,.831.335,1.128,1.128,0,0,1,.335.831Zm-13.228,7.221a4.658,4.658,0,0,0-3.421,1.418,4.667,4.667,0,0,0-1.416,3.423,4.658,4.658,0,0,0,1.418,3.421,4.667,4.667,0,0,0,3.423,1.416,4.658,4.658,0,0,0,3.421-1.418,4.668,4.668,0,0,0,1.416-3.423A4.658,4.658,0,0,0,180.2-780.2,4.667,4.667,0,0,0,176.773-781.612Z" transform="translate(1075.999 1271.999)" fill="#072635"/>
  </g>
</svg>
