<svg xmlns="http://www.w3.org/2000/svg" width="18" height="3.714" viewBox="0 0 18 3.714">
  <path id="more_horiz_FILL0_wght300_GRAD0_opsz24" d="M191.09-536.285a1.788,1.788,0,0,1-1.312-.546,1.788,1.788,0,0,1-.546-1.312,1.788,1.788,0,0,1,.546-1.312A1.788,1.788,0,0,1,191.09-540a1.788,1.788,0,0,1,1.312.546,1.788,1.788,0,0,1,.546,1.312,1.788,1.788,0,0,1-.546,1.312A1.788,1.788,0,0,1,191.09-536.285Zm7.143,0a1.788,1.788,0,0,1-1.312-.546,1.788,1.788,0,0,1-.546-1.312,1.788,1.788,0,0,1,.546-1.312,1.788,1.788,0,0,1,1.312-.546,1.788,1.788,0,0,1,1.312.546,1.788,1.788,0,0,1,.546,1.312,1.788,1.788,0,0,1-.546,1.312A1.788,1.788,0,0,1,198.233-536.285Zm7.143,0a1.788,1.788,0,0,1-1.312-.546,1.788,1.788,0,0,1-.546-1.312,1.788,1.788,0,0,1,.546-1.312,1.788,1.788,0,0,1,1.312-.546,1.788,1.788,0,0,1,1.312.546,1.788,1.788,0,0,1,.546,1.312,1.788,1.788,0,0,1-.546,1.312,1.788,1.788,0,0,1-1.312.546Z" transform="translate(-189.233 539.999)" fill="#072635"/>
</svg>
