<svg xmlns="http://www.w3.org/2000/svg" width="18.944" height="20" viewBox="0 0 18.944 20">
  <path id="settings_FILL0_wght300_GRAD0_opsz24" d="M128.365-840a1.334,1.334,0,0,1-.93-.357,1.481,1.481,0,0,1-.477-.88l-.257-1.97a4.826,4.826,0,0,1-.867-.4,5.593,5.593,0,0,1-.795-.547l-1.824.775a1.311,1.311,0,0,1-1,.042,1.439,1.439,0,0,1-.778-.64l-1.186-2.057a1.29,1.29,0,0,1-.16-.981,1.484,1.484,0,0,1,.538-.853l1.577-1.184q-.036-.235-.052-.472t-.015-.472q0-.225.015-.457t.052-.507l-1.577-1.184a1.462,1.462,0,0,1-.533-.858,1.317,1.317,0,0,1,.165-.986l1.176-2.026a1.475,1.475,0,0,1,.778-.635,1.3,1.3,0,0,1,1,.037l1.814.765a6.743,6.743,0,0,1,.813-.552,5.374,5.374,0,0,1,.849-.4l.267-1.97a1.48,1.48,0,0,1,.477-.88,1.334,1.334,0,0,1,.93-.357H130.7a1.334,1.334,0,0,1,.93.357,1.48,1.48,0,0,1,.477.88l.257,1.98a4.962,4.962,0,0,1,.857.4,7.079,7.079,0,0,1,.774.542l1.864-.765a1.3,1.3,0,0,1,1-.037,1.475,1.475,0,0,1,.778.635l1.176,2.036a1.29,1.29,0,0,1,.16.981,1.484,1.484,0,0,1-.538.853l-1.617,1.215a2.464,2.464,0,0,1,.062.477q.005.222.005.446t-.01.436a3.04,3.04,0,0,1-.073.507l1.587,1.194a1.509,1.509,0,0,1,.543.853,1.273,1.273,0,0,1-.155.981l-1.192,2.047a1.439,1.439,0,0,1-.783.64,1.323,1.323,0,0,1-1-.042l-1.8-.775a6.89,6.89,0,0,1-.8.552,4.806,4.806,0,0,1-.834.392l-.257,1.98a1.481,1.481,0,0,1-.477.88,1.334,1.334,0,0,1-.93.357Zm.113-1.579h2.069l.379-2.82a5.865,5.865,0,0,0,1.473-.6,6.5,6.5,0,0,0,1.286-1l2.615,1.1,1.036-1.789-2.283-1.721a4.308,4.308,0,0,0,.179-.8,6.6,6.6,0,0,0,.048-.794,6.438,6.438,0,0,0-.048-.794,4.115,4.115,0,0,0-.179-.781l2.3-1.741-1.036-1.79-2.646,1.115a5.607,5.607,0,0,0-1.266-1,5.444,5.444,0,0,0-1.493-.613l-.332-2.82h-2.089l-.348,2.81a5.5,5.5,0,0,0-1.488.583,6.275,6.275,0,0,0-1.3,1.012l-2.615-1.089-1.036,1.79,2.273,1.694a3.836,3.836,0,0,0-.184.779,6.615,6.615,0,0,0-.053.852,6.092,6.092,0,0,0,.053.806,4.6,4.6,0,0,0,.174.779l-2.263,1.721,1.036,1.789L125.347-846a5.9,5.9,0,0,0,1.281,1.008,5.951,5.951,0,0,0,1.508.6Zm1.065-5.263a3.045,3.045,0,0,0,2.236-.922A3.045,3.045,0,0,0,132.7-850a3.045,3.045,0,0,0-.922-2.236,3.045,3.045,0,0,0-2.236-.922,3.037,3.037,0,0,0-2.244.922,3.059,3.059,0,0,0-.914,2.236,3.058,3.058,0,0,0,.914,2.236A3.037,3.037,0,0,0,129.543-846.841ZM129.531-850Z" transform="translate(-120.059 859.999)" fill="#072635"/>
</svg>
